# xmcd
#
# Track frame offsets:
#	150
#	15574
#	30259
#	45072
#	67167
#	85124
#	100156
#	119621
#	139930
#	157971
#	171537
#	190692
#
# Disc length: 2793 seconds
#
# Revision: 0
# Processed by: cddbd v1.5.2PL0 Copyright (c) Steve Scherf et al.
# Submitted via: EasyCDDAExtractor 2010.4.0.0
#
DISCID=930ae70c
DTITLE=Mojo Zydeco - Zydified
DYEAR=2003
DGENRE=zydeco
TTITLE0=Ain't no secret
TTITLE1=Pass by Mama's
TTITLE2=Deux trois zydeco
TTITLE3=Creole angel
TTITLE4=My baby she's gone
TTITLE5=I want my baby back
TTITLE6=Chain reaction
TTITLE7=You wrong for that
TTITLE8=Zydeco ways
TTITLE9=Hot tamale baby
TTITLE10=Zydeco boogaloo
TTITLE11=Louisiana rain
EXTD=
EXTT0=
EXTT1=
EXTT2=
EXTT3=
EXTT4=
EXTT5=
EXTT6=
EXTT7=
EXTT8=
EXTT9=
EXTT10=
EXTT11=
PLAYORDER=
